<mxfile host="app.diagrams.net" agent="Mozilla/5.0 (Windows NT 10.0; Win64; x64) AppleWebKit/537.36 (KHTML, like Gecko) Chrome/123.0.0.0 Safari/537.36 OPR/109.0.0.0" version="24.7.7">
  <diagram name="PÃ¡gina-1" id="FHienhPEfKgyq41wuvRM">
    <mxGraphModel dx="2268" dy="774" grid="1" gridSize="10" guides="1" tooltips="1" connect="1" arrows="1" fold="1" page="1" pageScale="1" pageWidth="827" pageHeight="1169" math="0" shadow="0">
      <root>
        <mxCell id="0" />
        <mxCell id="1" parent="0" />
        <mxCell id="uLEs7efsvwYyZU_ZEpff-1" value="Reservar una Cita - Actual" style="shape=table;childLayout=tableLayout;startSize=40;collapsible=0;recursiveResize=0;expand=0;fontSize=16;fontStyle=1" parent="1" vertex="1">
          <mxGeometry x="-210" y="110" width="1630" height="700" as="geometry" />
        </mxCell>
        <mxCell id="uLEs7efsvwYyZU_ZEpff-2" value="Cliente" style="shape=tableRow;horizontal=0;swimlaneHead=0;swimlaneBody=0;top=0;left=0;strokeColor=inherit;bottom=0;right=0;dropTarget=0;fontStyle=1;fillColor=none;points=[[0,0.5],[1,0.5]];portConstraint=eastwest;startSize=40;collapsible=0;recursiveResize=0;expand=0;fontSize=16;" parent="uLEs7efsvwYyZU_ZEpff-1" vertex="1">
          <mxGeometry y="40" width="1630" height="250" as="geometry" />
        </mxCell>
        <mxCell id="uLEs7efsvwYyZU_ZEpff-3" value="Estado inicial" style="swimlane;swimlaneHead=0;swimlaneBody=0;fontStyle=1;strokeColor=inherit;connectable=0;fillColor=none;startSize=40;collapsible=0;recursiveResize=0;expand=0;fontSize=16;" parent="uLEs7efsvwYyZU_ZEpff-2" vertex="1">
          <mxGeometry x="40" width="514" height="250" as="geometry">
            <mxRectangle width="514" height="250" as="alternateBounds" />
          </mxGeometry>
        </mxCell>
        <mxCell id="5yFkNNCPkQba19u_5EOz-1" value="El&amp;nbsp; cliente llama o llega a la barberia para reservar&amp;nbsp; una cita" style="rounded=0;whiteSpace=wrap;html=1;fontSize=14;" parent="uLEs7efsvwYyZU_ZEpff-3" vertex="1">
          <mxGeometry x="155" y="87.5" width="185" height="51" as="geometry" />
        </mxCell>
        <mxCell id="5yFkNNCPkQba19u_5EOz-22" style="edgeStyle=orthogonalEdgeStyle;rounded=0;orthogonalLoop=1;jettySize=auto;html=1;exitX=1;exitY=0.5;exitDx=0;exitDy=0;exitPerimeter=0;entryX=0;entryY=0.5;entryDx=0;entryDy=0;" parent="uLEs7efsvwYyZU_ZEpff-3" source="5yFkNNCPkQba19u_5EOz-20" target="5yFkNNCPkQba19u_5EOz-1" edge="1">
          <mxGeometry relative="1" as="geometry" />
        </mxCell>
        <mxCell id="5yFkNNCPkQba19u_5EOz-20" value="" style="points=[[0.145,0.145,0],[0.5,0,0],[0.855,0.145,0],[1,0.5,0],[0.855,0.855,0],[0.5,1,0],[0.145,0.855,0],[0,0.5,0]];shape=mxgraph.bpmn.event;html=1;verticalLabelPosition=bottom;labelBackgroundColor=#ffffff;verticalAlign=top;align=center;perimeter=ellipsePerimeter;outlineConnect=0;aspect=fixed;outline=standard;symbol=general;" parent="uLEs7efsvwYyZU_ZEpff-3" vertex="1">
          <mxGeometry x="20" y="87.5" width="50" height="50" as="geometry" />
        </mxCell>
        <mxCell id="uLEs7efsvwYyZU_ZEpff-4" value="Estado Intermedio" style="swimlane;swimlaneHead=0;swimlaneBody=0;fontStyle=1;strokeColor=inherit;connectable=0;fillColor=none;startSize=40;collapsible=0;recursiveResize=0;expand=0;fontSize=16;" parent="uLEs7efsvwYyZU_ZEpff-2" vertex="1">
          <mxGeometry x="554" width="501" height="250" as="geometry">
            <mxRectangle width="501" height="250" as="alternateBounds" />
          </mxGeometry>
        </mxCell>
        <mxCell id="5yFkNNCPkQba19u_5EOz-12" value="El cliente toma la cita" style="strokeWidth=2;html=1;shape=mxgraph.flowchart.decision;whiteSpace=wrap;fontSize=13;" parent="uLEs7efsvwYyZU_ZEpff-4" vertex="1">
          <mxGeometry x="110" y="50" width="106" height="110" as="geometry" />
        </mxCell>
        <mxCell id="5yFkNNCPkQba19u_5EOz-28" value="&lt;font style=&quot;font-size: 16px;&quot;&gt;NO&lt;/font&gt;" style="text;html=1;align=center;verticalAlign=middle;resizable=0;points=[];autosize=1;strokeColor=none;fillColor=none;" parent="uLEs7efsvwYyZU_ZEpff-4" vertex="1">
          <mxGeometry x="50" y="60" width="50" height="30" as="geometry" />
        </mxCell>
        <mxCell id="5yFkNNCPkQba19u_5EOz-35" value="" style="points=[[0.145,0.145,0],[0.5,0,0],[0.855,0.145,0],[1,0.5,0],[0.855,0.855,0],[0.5,1,0],[0.145,0.855,0],[0,0.5,0]];shape=mxgraph.bpmn.event;html=1;verticalLabelPosition=bottom;labelBackgroundColor=#ffffff;verticalAlign=top;align=center;perimeter=ellipsePerimeter;outlineConnect=0;aspect=fixed;outline=end;symbol=terminate;" parent="uLEs7efsvwYyZU_ZEpff-4" vertex="1">
          <mxGeometry x="40" y="160" width="50" height="50" as="geometry" />
        </mxCell>
        <mxCell id="5yFkNNCPkQba19u_5EOz-36" style="edgeStyle=orthogonalEdgeStyle;rounded=0;orthogonalLoop=1;jettySize=auto;html=1;exitX=0;exitY=0.5;exitDx=0;exitDy=0;exitPerimeter=0;entryX=0.5;entryY=0;entryDx=0;entryDy=0;entryPerimeter=0;" parent="uLEs7efsvwYyZU_ZEpff-4" source="5yFkNNCPkQba19u_5EOz-12" target="5yFkNNCPkQba19u_5EOz-35" edge="1">
          <mxGeometry relative="1" as="geometry" />
        </mxCell>
        <mxCell id="5yFkNNCPkQba19u_5EOz-14" value="Si" style="text;html=1;align=center;verticalAlign=middle;resizable=0;points=[];autosize=1;strokeColor=none;fillColor=none;fontSize=17;" parent="uLEs7efsvwYyZU_ZEpff-4" vertex="1">
          <mxGeometry x="200" y="57.5" width="40" height="30" as="geometry" />
        </mxCell>
        <mxCell id="uLEs7efsvwYyZU_ZEpff-5" value="Estado Final" style="swimlane;swimlaneHead=0;swimlaneBody=0;fontStyle=1;strokeColor=inherit;connectable=0;fillColor=none;startSize=40;collapsible=0;recursiveResize=0;expand=0;fontSize=16;" parent="uLEs7efsvwYyZU_ZEpff-2" vertex="1">
          <mxGeometry x="1055" width="575" height="250" as="geometry">
            <mxRectangle width="575" height="250" as="alternateBounds" />
          </mxGeometry>
        </mxCell>
        <mxCell id="p7NaJWHtGg9ij8AE1nMc-9" value="El Cliente se dirige a la Barberia y recibe el servicio" style="rounded=0;whiteSpace=wrap;html=1;fontSize=14;" parent="uLEs7efsvwYyZU_ZEpff-5" vertex="1">
          <mxGeometry x="65" y="87.5" width="184" height="55" as="geometry" />
        </mxCell>
        <mxCell id="p7NaJWHtGg9ij8AE1nMc-10" value="" style="points=[[0.145,0.145,0],[0.5,0,0],[0.855,0.145,0],[1,0.5,0],[0.855,0.855,0],[0.5,1,0],[0.145,0.855,0],[0,0.5,0]];shape=mxgraph.bpmn.event;html=1;verticalLabelPosition=bottom;labelBackgroundColor=#ffffff;verticalAlign=top;align=center;perimeter=ellipsePerimeter;outlineConnect=0;aspect=fixed;outline=end;symbol=terminate;" parent="uLEs7efsvwYyZU_ZEpff-5" vertex="1">
          <mxGeometry x="519" y="170" width="50" height="50" as="geometry" />
        </mxCell>
        <mxCell id="p7NaJWHtGg9ij8AE1nMc-11" style="edgeStyle=orthogonalEdgeStyle;rounded=0;orthogonalLoop=1;jettySize=auto;html=1;exitX=1;exitY=0.5;exitDx=0;exitDy=0;" parent="uLEs7efsvwYyZU_ZEpff-5" source="p7NaJWHtGg9ij8AE1nMc-12" target="p7NaJWHtGg9ij8AE1nMc-10" edge="1">
          <mxGeometry relative="1" as="geometry" />
        </mxCell>
        <mxCell id="p7NaJWHtGg9ij8AE1nMc-12" value="El Cliente Paga por el servicio Adquirido" style="rounded=0;whiteSpace=wrap;html=1;fontSize=14;" parent="uLEs7efsvwYyZU_ZEpff-5" vertex="1">
          <mxGeometry x="299" y="90" width="184" height="55" as="geometry" />
        </mxCell>
        <mxCell id="p7NaJWHtGg9ij8AE1nMc-13" value="El barbero presta el servicio" style="rounded=0;whiteSpace=wrap;html=1;fontSize=14;" parent="uLEs7efsvwYyZU_ZEpff-5" vertex="1">
          <mxGeometry x="45" y="550" width="144" height="53" as="geometry" />
        </mxCell>
        <mxCell id="p7NaJWHtGg9ij8AE1nMc-14" style="edgeStyle=orthogonalEdgeStyle;rounded=0;orthogonalLoop=1;jettySize=auto;html=1;exitX=0.5;exitY=1;exitDx=0;exitDy=0;" parent="uLEs7efsvwYyZU_ZEpff-5" source="p7NaJWHtGg9ij8AE1nMc-9" target="p7NaJWHtGg9ij8AE1nMc-13" edge="1">
          <mxGeometry relative="1" as="geometry">
            <mxPoint x="181" y="590" as="targetPoint" />
            <Array as="points">
              <mxPoint x="129" y="143" />
            </Array>
          </mxGeometry>
        </mxCell>
        <mxCell id="p7NaJWHtGg9ij8AE1nMc-15" style="edgeStyle=orthogonalEdgeStyle;rounded=0;orthogonalLoop=1;jettySize=auto;html=1;exitX=1;exitY=0.5;exitDx=0;exitDy=0;entryX=0.5;entryY=1;entryDx=0;entryDy=0;" parent="uLEs7efsvwYyZU_ZEpff-5" source="p7NaJWHtGg9ij8AE1nMc-13" target="p7NaJWHtGg9ij8AE1nMc-12" edge="1">
          <mxGeometry relative="1" as="geometry" />
        </mxCell>
        <mxCell id="uLEs7efsvwYyZU_ZEpff-6" value="Secretario/Asistente" style="shape=tableRow;horizontal=0;swimlaneHead=0;swimlaneBody=0;top=0;left=0;strokeColor=inherit;bottom=0;right=0;dropTarget=0;fontStyle=1;fillColor=none;points=[[0,0.5],[1,0.5]];portConstraint=eastwest;startSize=40;collapsible=0;recursiveResize=0;expand=0;fontSize=16;" parent="uLEs7efsvwYyZU_ZEpff-1" vertex="1">
          <mxGeometry y="290" width="1630" height="263" as="geometry" />
        </mxCell>
        <mxCell id="uLEs7efsvwYyZU_ZEpff-7" value="" style="swimlane;swimlaneHead=0;swimlaneBody=0;fontStyle=1;connectable=0;strokeColor=inherit;fillColor=none;startSize=0;collapsible=0;recursiveResize=0;expand=0;fontSize=16;" parent="uLEs7efsvwYyZU_ZEpff-6" vertex="1">
          <mxGeometry x="40" width="514" height="263" as="geometry">
            <mxRectangle width="514" height="263" as="alternateBounds" />
          </mxGeometry>
        </mxCell>
        <mxCell id="5yFkNNCPkQba19u_5EOz-24" style="edgeStyle=orthogonalEdgeStyle;rounded=0;orthogonalLoop=1;jettySize=auto;html=1;exitX=0;exitY=0.5;exitDx=0;exitDy=0;exitPerimeter=0;entryX=1;entryY=0.5;entryDx=0;entryDy=0;entryPerimeter=0;" parent="uLEs7efsvwYyZU_ZEpff-7" source="5yFkNNCPkQba19u_5EOz-3" target="5yFkNNCPkQba19u_5EOz-26" edge="1">
          <mxGeometry relative="1" as="geometry">
            <mxPoint x="130" y="205" as="targetPoint" />
          </mxGeometry>
        </mxCell>
        <mxCell id="5yFkNNCPkQba19u_5EOz-3" value="El asistente revisa disponibilidad" style="strokeWidth=2;html=1;shape=mxgraph.flowchart.decision;whiteSpace=wrap;fontSize=13;" parent="uLEs7efsvwYyZU_ZEpff-7" vertex="1">
          <mxGeometry x="175" y="40" width="120" height="120" as="geometry" />
        </mxCell>
        <mxCell id="5yFkNNCPkQba19u_5EOz-8" value="NO" style="text;html=1;align=center;verticalAlign=middle;resizable=0;points=[];autosize=1;strokeColor=none;fillColor=none;" parent="uLEs7efsvwYyZU_ZEpff-7" vertex="1">
          <mxGeometry x="170" y="130" width="40" height="30" as="geometry" />
        </mxCell>
        <mxCell id="5yFkNNCPkQba19u_5EOz-5" value="SI" style="text;html=1;align=center;verticalAlign=middle;resizable=0;points=[];autosize=1;strokeColor=none;fillColor=none;" parent="uLEs7efsvwYyZU_ZEpff-7" vertex="1">
          <mxGeometry x="260" y="40" width="30" height="30" as="geometry" />
        </mxCell>
        <mxCell id="5yFkNNCPkQba19u_5EOz-26" value="" style="points=[[0.145,0.145,0],[0.5,0,0],[0.855,0.145,0],[1,0.5,0],[0.855,0.855,0],[0.5,1,0],[0.145,0.855,0],[0,0.5,0]];shape=mxgraph.bpmn.event;html=1;verticalLabelPosition=bottom;labelBackgroundColor=#ffffff;verticalAlign=top;align=center;perimeter=ellipsePerimeter;outlineConnect=0;aspect=fixed;outline=end;symbol=terminate;" parent="uLEs7efsvwYyZU_ZEpff-7" vertex="1">
          <mxGeometry x="60" y="170" width="50" height="50" as="geometry" />
        </mxCell>
        <mxCell id="uLEs7efsvwYyZU_ZEpff-8" value="" style="swimlane;swimlaneHead=0;swimlaneBody=0;fontStyle=1;connectable=0;strokeColor=inherit;fillColor=none;startSize=0;collapsible=0;recursiveResize=0;expand=0;fontSize=16;" parent="uLEs7efsvwYyZU_ZEpff-6" vertex="1">
          <mxGeometry x="554" width="501" height="263" as="geometry">
            <mxRectangle width="501" height="263" as="alternateBounds" />
          </mxGeometry>
        </mxCell>
        <mxCell id="5yFkNNCPkQba19u_5EOz-7" value="El asistente informa sobre la disponibilidad" style="rounded=0;whiteSpace=wrap;html=1;fontSize=14;" parent="uLEs7efsvwYyZU_ZEpff-8" vertex="1">
          <mxGeometry x="40" y="69.99571428571443" width="120" height="60" as="geometry" />
        </mxCell>
        <mxCell id="5yFkNNCPkQba19u_5EOz-37" value="El asistente Pregunta al barbero para aceptar el servicio&amp;nbsp;" style="rounded=0;whiteSpace=wrap;html=1;fontSize=14;" parent="uLEs7efsvwYyZU_ZEpff-8" vertex="1">
          <mxGeometry x="210" y="40" width="150" height="60" as="geometry" />
        </mxCell>
        <mxCell id="p7NaJWHtGg9ij8AE1nMc-1" value="El asistente Confirma la cita" style="rounded=0;whiteSpace=wrap;html=1;fontSize=14;" parent="uLEs7efsvwYyZU_ZEpff-8" vertex="1">
          <mxGeometry x="250" y="154.99571428571448" width="120" height="60" as="geometry" />
        </mxCell>
        <mxCell id="uLEs7efsvwYyZU_ZEpff-9" value="" style="swimlane;swimlaneHead=0;swimlaneBody=0;fontStyle=1;connectable=0;strokeColor=inherit;fillColor=none;startSize=0;collapsible=0;recursiveResize=0;expand=0;fontSize=16;" parent="uLEs7efsvwYyZU_ZEpff-6" vertex="1">
          <mxGeometry x="1055" width="575" height="263" as="geometry">
            <mxRectangle width="575" height="263" as="alternateBounds" />
          </mxGeometry>
        </mxCell>
        <mxCell id="5yFkNNCPkQba19u_5EOz-6" style="edgeStyle=orthogonalEdgeStyle;rounded=0;orthogonalLoop=1;jettySize=auto;html=1;exitX=1;exitY=0.5;exitDx=0;exitDy=0;exitPerimeter=0;" parent="uLEs7efsvwYyZU_ZEpff-6" source="5yFkNNCPkQba19u_5EOz-3" target="5yFkNNCPkQba19u_5EOz-7" edge="1">
          <mxGeometry relative="1" as="geometry">
            <mxPoint x="530" y="90.28571428571445" as="targetPoint" />
          </mxGeometry>
        </mxCell>
        <mxCell id="uLEs7efsvwYyZU_ZEpff-10" value="Barbero" style="shape=tableRow;horizontal=0;swimlaneHead=0;swimlaneBody=0;top=0;left=0;strokeColor=inherit;bottom=0;right=0;dropTarget=0;fontStyle=1;fillColor=none;points=[[0,0.5],[1,0.5]];portConstraint=eastwest;startSize=40;collapsible=0;recursiveResize=0;expand=0;fontSize=16;" parent="uLEs7efsvwYyZU_ZEpff-1" vertex="1">
          <mxGeometry y="553" width="1630" height="147" as="geometry" />
        </mxCell>
        <mxCell id="uLEs7efsvwYyZU_ZEpff-11" value="" style="swimlane;swimlaneHead=0;swimlaneBody=0;fontStyle=1;connectable=0;strokeColor=inherit;fillColor=none;startSize=0;collapsible=0;recursiveResize=0;expand=0;fontSize=16;" parent="uLEs7efsvwYyZU_ZEpff-10" vertex="1">
          <mxGeometry x="40" width="514" height="147" as="geometry">
            <mxRectangle width="514" height="147" as="alternateBounds" />
          </mxGeometry>
        </mxCell>
        <mxCell id="p7NaJWHtGg9ij8AE1nMc-17" value="El barbero abre una agenda de citas" style="rounded=0;whiteSpace=wrap;html=1;fontSize=14;" parent="uLEs7efsvwYyZU_ZEpff-11" vertex="1">
          <mxGeometry x="155" y="49.5" width="185" height="51" as="geometry" />
        </mxCell>
        <mxCell id="p7NaJWHtGg9ij8AE1nMc-19" style="edgeStyle=orthogonalEdgeStyle;rounded=0;orthogonalLoop=1;jettySize=auto;html=1;exitX=1;exitY=0.5;exitDx=0;exitDy=0;exitPerimeter=0;entryX=0;entryY=0.5;entryDx=0;entryDy=0;" parent="uLEs7efsvwYyZU_ZEpff-11" source="p7NaJWHtGg9ij8AE1nMc-18" target="p7NaJWHtGg9ij8AE1nMc-17" edge="1">
          <mxGeometry relative="1" as="geometry" />
        </mxCell>
        <mxCell id="p7NaJWHtGg9ij8AE1nMc-18" value="" style="points=[[0.145,0.145,0],[0.5,0,0],[0.855,0.145,0],[1,0.5,0],[0.855,0.855,0],[0.5,1,0],[0.145,0.855,0],[0,0.5,0]];shape=mxgraph.bpmn.event;html=1;verticalLabelPosition=bottom;labelBackgroundColor=#ffffff;verticalAlign=top;align=center;perimeter=ellipsePerimeter;outlineConnect=0;aspect=fixed;outline=standard;symbol=general;" parent="uLEs7efsvwYyZU_ZEpff-11" vertex="1">
          <mxGeometry x="20" y="49.5" width="50" height="50" as="geometry" />
        </mxCell>
        <mxCell id="uLEs7efsvwYyZU_ZEpff-12" value="" style="swimlane;swimlaneHead=0;swimlaneBody=0;fontStyle=1;connectable=0;strokeColor=inherit;fillColor=none;startSize=0;collapsible=0;recursiveResize=0;expand=0;fontSize=16;" parent="uLEs7efsvwYyZU_ZEpff-10" vertex="1">
          <mxGeometry x="554" width="501" height="147" as="geometry">
            <mxRectangle width="501" height="147" as="alternateBounds" />
          </mxGeometry>
        </mxCell>
        <mxCell id="p7NaJWHtGg9ij8AE1nMc-2" value="El cliente toma la cita" style="strokeWidth=2;html=1;shape=mxgraph.flowchart.decision;whiteSpace=wrap;fontSize=13;" parent="uLEs7efsvwYyZU_ZEpff-12" vertex="1">
          <mxGeometry x="78" y="8.5" width="106" height="110" as="geometry" />
        </mxCell>
        <mxCell id="p7NaJWHtGg9ij8AE1nMc-5" value="&lt;font style=&quot;font-size: 16px;&quot;&gt;NO&lt;/font&gt;" style="text;html=1;align=center;verticalAlign=middle;resizable=0;points=[];autosize=1;strokeColor=none;fillColor=none;" parent="uLEs7efsvwYyZU_ZEpff-12" vertex="1">
          <mxGeometry x="26" y="19.5" width="50" height="30" as="geometry" />
        </mxCell>
        <mxCell id="p7NaJWHtGg9ij8AE1nMc-6" value="Si" style="text;html=1;align=center;verticalAlign=middle;resizable=0;points=[];autosize=1;strokeColor=none;fillColor=none;fontSize=17;" parent="uLEs7efsvwYyZU_ZEpff-12" vertex="1">
          <mxGeometry x="176" y="17" width="40" height="30" as="geometry" />
        </mxCell>
        <mxCell id="c2JFLxYmX31I_l5-JsKs-1" value="La asistente le notifica al barbero" style="rounded=0;whiteSpace=wrap;html=1;fontSize=14;" vertex="1" parent="uLEs7efsvwYyZU_ZEpff-12">
          <mxGeometry x="316" y="67" width="170" height="60" as="geometry" />
        </mxCell>
        <mxCell id="uLEs7efsvwYyZU_ZEpff-13" value="" style="swimlane;swimlaneHead=0;swimlaneBody=0;fontStyle=1;connectable=0;strokeColor=inherit;fillColor=none;startSize=0;collapsible=0;recursiveResize=0;expand=0;fontSize=16;" parent="uLEs7efsvwYyZU_ZEpff-10" vertex="1">
          <mxGeometry x="1055" width="575" height="147" as="geometry">
            <mxRectangle width="575" height="147" as="alternateBounds" />
          </mxGeometry>
        </mxCell>
        <mxCell id="5yFkNNCPkQba19u_5EOz-34" style="edgeStyle=orthogonalEdgeStyle;rounded=0;orthogonalLoop=1;jettySize=auto;html=1;exitX=1;exitY=0.5;exitDx=0;exitDy=0;entryX=0;entryY=0.5;entryDx=0;entryDy=0;entryPerimeter=0;" parent="uLEs7efsvwYyZU_ZEpff-13" edge="1">
          <mxGeometry relative="1" as="geometry">
            <mxPoint x="200" y="63.5" as="sourcePoint" />
          </mxGeometry>
        </mxCell>
        <mxCell id="5yFkNNCPkQba19u_5EOz-23" style="edgeStyle=orthogonalEdgeStyle;rounded=0;orthogonalLoop=1;jettySize=auto;html=1;exitX=0.5;exitY=1;exitDx=0;exitDy=0;entryX=0.5;entryY=0;entryDx=0;entryDy=0;entryPerimeter=0;" parent="uLEs7efsvwYyZU_ZEpff-1" source="5yFkNNCPkQba19u_5EOz-1" target="5yFkNNCPkQba19u_5EOz-3" edge="1">
          <mxGeometry relative="1" as="geometry">
            <Array as="points">
              <mxPoint x="275" y="179" />
            </Array>
          </mxGeometry>
        </mxCell>
        <mxCell id="5yFkNNCPkQba19u_5EOz-27" style="edgeStyle=orthogonalEdgeStyle;rounded=0;orthogonalLoop=1;jettySize=auto;html=1;exitX=0.5;exitY=0;exitDx=0;exitDy=0;entryX=0.5;entryY=1;entryDx=0;entryDy=0;entryPerimeter=0;" parent="uLEs7efsvwYyZU_ZEpff-1" source="5yFkNNCPkQba19u_5EOz-7" target="5yFkNNCPkQba19u_5EOz-12" edge="1">
          <mxGeometry relative="1" as="geometry">
            <Array as="points">
              <mxPoint x="654" y="330" />
              <mxPoint x="717" y="330" />
            </Array>
          </mxGeometry>
        </mxCell>
        <mxCell id="5yFkNNCPkQba19u_5EOz-38" style="edgeStyle=orthogonalEdgeStyle;rounded=0;orthogonalLoop=1;jettySize=auto;html=1;exitX=1;exitY=0.5;exitDx=0;exitDy=0;exitPerimeter=0;entryX=0.5;entryY=0;entryDx=0;entryDy=0;" parent="uLEs7efsvwYyZU_ZEpff-1" source="5yFkNNCPkQba19u_5EOz-12" target="5yFkNNCPkQba19u_5EOz-37" edge="1">
          <mxGeometry relative="1" as="geometry" />
        </mxCell>
        <mxCell id="p7NaJWHtGg9ij8AE1nMc-3" style="edgeStyle=orthogonalEdgeStyle;rounded=0;orthogonalLoop=1;jettySize=auto;html=1;exitX=0.5;exitY=1;exitDx=0;exitDy=0;entryX=0.5;entryY=0;entryDx=0;entryDy=0;entryPerimeter=0;" parent="uLEs7efsvwYyZU_ZEpff-1" source="5yFkNNCPkQba19u_5EOz-37" target="p7NaJWHtGg9ij8AE1nMc-2" edge="1">
          <mxGeometry relative="1" as="geometry">
            <Array as="points">
              <mxPoint x="750" y="390" />
              <mxPoint x="750" y="476" />
              <mxPoint x="680" y="476" />
              <mxPoint x="680" y="562" />
            </Array>
          </mxGeometry>
        </mxCell>
        <mxCell id="p7NaJWHtGg9ij8AE1nMc-7" style="edgeStyle=orthogonalEdgeStyle;rounded=0;orthogonalLoop=1;jettySize=auto;html=1;exitX=0;exitY=0.5;exitDx=0;exitDy=0;exitPerimeter=0;entryX=0.5;entryY=1;entryDx=0;entryDy=0;" parent="uLEs7efsvwYyZU_ZEpff-1" source="p7NaJWHtGg9ij8AE1nMc-2" target="5yFkNNCPkQba19u_5EOz-7" edge="1">
          <mxGeometry relative="1" as="geometry">
            <Array as="points">
              <mxPoint x="570" y="617" />
              <mxPoint x="570" y="491" />
              <mxPoint x="654" y="491" />
            </Array>
          </mxGeometry>
        </mxCell>
        <mxCell id="p7NaJWHtGg9ij8AE1nMc-8" style="edgeStyle=orthogonalEdgeStyle;rounded=0;orthogonalLoop=1;jettySize=auto;html=1;exitX=1;exitY=0.5;exitDx=0;exitDy=0;exitPerimeter=0;entryX=0.5;entryY=1;entryDx=0;entryDy=0;" parent="uLEs7efsvwYyZU_ZEpff-1" source="p7NaJWHtGg9ij8AE1nMc-2" target="p7NaJWHtGg9ij8AE1nMc-1" edge="1">
          <mxGeometry relative="1" as="geometry" />
        </mxCell>
        <mxCell id="p7NaJWHtGg9ij8AE1nMc-16" style="edgeStyle=orthogonalEdgeStyle;rounded=0;orthogonalLoop=1;jettySize=auto;html=1;exitX=1;exitY=0.5;exitDx=0;exitDy=0;entryX=0;entryY=0.5;entryDx=0;entryDy=0;" parent="uLEs7efsvwYyZU_ZEpff-1" source="p7NaJWHtGg9ij8AE1nMc-1" target="p7NaJWHtGg9ij8AE1nMc-9" edge="1">
          <mxGeometry relative="1" as="geometry" />
        </mxCell>
        <mxCell id="p7NaJWHtGg9ij8AE1nMc-20" style="edgeStyle=orthogonalEdgeStyle;rounded=0;orthogonalLoop=1;jettySize=auto;html=1;exitX=0.5;exitY=0;exitDx=0;exitDy=0;" parent="uLEs7efsvwYyZU_ZEpff-1" source="p7NaJWHtGg9ij8AE1nMc-17" target="5yFkNNCPkQba19u_5EOz-3" edge="1">
          <mxGeometry relative="1" as="geometry">
            <Array as="points">
              <mxPoint x="275" y="603" />
            </Array>
          </mxGeometry>
        </mxCell>
        <mxCell id="c2JFLxYmX31I_l5-JsKs-2" style="edgeStyle=orthogonalEdgeStyle;rounded=0;orthogonalLoop=1;jettySize=auto;html=1;exitX=0.75;exitY=1;exitDx=0;exitDy=0;entryX=0.5;entryY=0;entryDx=0;entryDy=0;" edge="1" parent="uLEs7efsvwYyZU_ZEpff-1" source="p7NaJWHtGg9ij8AE1nMc-1" target="c2JFLxYmX31I_l5-JsKs-1">
          <mxGeometry relative="1" as="geometry" />
        </mxCell>
      </root>
    </mxGraphModel>
  </diagram>
</mxfile>
